<svg width="147" height="147" viewBox="0 0 147 147" fill="none" xmlns="http://www.w3.org/2000/svg">
<path d="M146.683 113.137C140.581 107.035 135.736 99.7947 132.423 91.8309C129.111 83.8663 127.395 75.3299 127.377 66.7163C127.36 58.1035 129.037 49.5764 132.317 41.6258C135.597 33.6759 140.413 26.4551 146.49 20.3774L126.302 0.188971C120.224 6.26645 113.004 11.0825 105.054 14.3622C97.1034 17.6418 88.5794 19.3234 79.9669 19.3062C71.3534 19.2886 62.8169 17.5725 54.8523 14.2601L51.9013 12.9492C45.0964 9.7192 38.8862 5.34018 33.546 0.000158894L13.7091 19.8371C21.8831 28.0109 31.4859 34.6049 42.0296 39.2965L44.1505 40.21C55.4046 44.8904 67.4524 47.3346 79.6209 47.4114L0.000506169 127.032L19.6477 146.679L99.2718 67.0548C99.3429 78.4568 101.492 89.7526 105.613 100.389L106.473 102.533C111.205 113.911 118.127 124.255 126.846 132.974L146.683 113.137Z" fill="white"/>
</svg>
