<svg width="166" height="33" viewBox="55.5 10 166 33" fill="none" xmlns="http://www.w3.org/2000/svg" className="text-[#090a0c]">
    <g clipPath="url(#clip0_7207_198)">
        {/* Logo Path */}
        <path d="M70.2571 40.0677C69.5818 40.2849 68.9219 40.545 68.2164 40.6663C67.7799 40.7415 66.6107 40.8981 66.2385 40.7507C65.8795 40.6087 65.0057 39.4867 64.7669 39.1276C64.4157 38.6003 64.1296 38.0117 63.9102 37.42C65.2437 37.4791 66.5572 37.245 67.8341 36.8936C68.4304 38.1053 69.3019 39.1245 70.2579 40.0677H70.2571Z" fill="#090a0c" />
        <path d="M61.1709 34.7088C61.112 34.7733 59.7536 34.058 59.5954 33.959C59.2729 33.7572 57.9711 32.7726 57.8432 32.4894C57.7051 32.1839 57.7749 31.2876 57.8183 30.9284C57.9222 30.0658 58.2153 29.24 58.496 28.4258C59.4489 29.402 60.5258 30.2047 61.7245 30.8655C61.3105 32.1018 61.1275 33.4049 61.1717 34.7088H61.1709Z" fill="#090a0c" />
        <path d="M80.4641 37.4193C80.2145 38.1115 79.8493 38.7738 79.4205 39.3732C79.2135 39.6625 78.4575 40.6049 78.1769 40.7292C77.7838 40.9034 76.62 40.7453 76.1579 40.6663C75.4523 40.545 74.7925 40.2849 74.1172 40.0677C75.0833 39.1299 75.9369 38.1015 76.5409 36.8936C77.8179 37.2458 79.1313 37.4791 80.4649 37.42L80.4641 37.4193Z" fill="#090a0c" />
        <path d="M70.2579 12.964C69.2809 13.9133 68.4529 14.9693 67.7931 16.1589C66.544 15.7491 65.2275 15.5679 63.9102 15.6117C64.266 14.6739 64.8181 13.7107 65.4957 12.9625C65.8625 12.5573 66.1493 12.2257 66.7417 12.2188C66.9813 12.2165 67.4798 12.2641 67.7287 12.2933C68.6002 12.3961 69.4344 12.6862 70.2571 12.964H70.2579Z" fill="#090a0c" />
        <path d="M85.8773 28.4873C86.1603 29.2816 86.4519 30.0836 86.555 30.9285C86.5876 31.1987 86.6325 31.7029 86.6302 31.9684C86.6287 32.1081 86.6031 32.3184 86.5472 32.4442C86.3961 32.7857 85.1462 33.7289 84.7787 33.9592C84.6198 34.0582 83.2621 34.7734 83.2032 34.709C83.2466 33.4043 83.0644 32.102 82.6504 30.8656C83.4699 30.376 84.2856 29.8833 85.009 29.2586C85.1323 29.1527 85.7828 28.4182 85.8789 28.4881L85.8773 28.4873Z" fill="#090a0c" />
        <path d="M80.4649 15.6119C79.1468 15.5689 77.8311 15.7493 76.582 16.1591C75.9152 14.9734 75.1034 13.9066 74.1172 12.9634C74.4769 12.8775 74.8072 12.7125 75.1616 12.6104C75.9082 12.3963 76.9224 12.2106 77.6962 12.219C78.2373 12.2244 78.4149 12.4777 78.7545 12.8391C79.481 13.6127 80.0912 14.625 80.4649 15.6119Z" fill="#090a0c" />
        <path d="M61.17 18.3232C61.1266 19.6279 61.3088 20.9302 61.7229 22.1666C60.5203 22.8158 59.4596 23.6493 58.4951 24.6063C58.2145 23.792 57.9214 22.9663 57.8175 22.1037C57.788 21.8565 57.7399 21.3646 57.7423 21.1267C57.7477 20.5995 58.0082 20.3493 58.3687 20.0162C59.1526 19.2925 60.166 18.6893 61.17 18.3232Z" fill="#090a0c" />
        <path d="M85.8789 24.6063C84.9159 23.6455 83.8475 22.8258 82.6504 22.1666C83.0644 20.9302 83.2474 19.6271 83.2032 18.3232C84.2026 18.6901 85.2261 19.2918 86.0045 20.0162C86.3681 20.3547 86.6387 20.5918 86.6302 21.1275C86.6217 21.7207 86.5108 22.4521 86.372 23.0315C86.2433 23.5687 86.0099 24.0721 85.8781 24.6071L85.8789 24.6063Z" fill="#090a0c" />
        <path d="M62.5718 24.1816L64.3403 26.5377C63.6325 27.2169 63.1331 28.0588 62.5718 28.85C61.5026 28.2468 60.5047 27.5054 59.7441 26.5385C60.4652 25.5262 61.515 24.8148 62.5718 24.1816Z" fill="#090a0c" />
        <path d="M72.1634 14.2002C73.1799 14.9155 73.9064 15.9569 74.5437 16.9991C73.7444 17.5555 72.8938 18.0489 72.2084 18.7496L69.8281 16.9991C70.4593 15.9477 71.1788 14.9584 72.1634 14.2002Z" fill="#090a0c" />
        <path d="M81.8018 24.1816C82.8678 24.8063 83.8897 25.5392 84.6294 26.5377C83.8587 27.497 82.8756 28.2491 81.8018 28.85C81.2396 28.0588 80.7411 27.2169 80.0332 26.5377L81.8018 24.1816Z" fill="#090a0c" />
        <path d="M72.1634 34.2822C72.9023 34.9468 73.7071 35.4986 74.5437 36.0328C73.9211 37.0811 73.1729 38.0673 72.2084 38.8316C71.1764 38.1279 70.4709 37.0749 69.8281 36.0328C70.6384 35.4894 71.4811 34.9898 72.1634 34.2822Z" fill="#090a0c" />
        <path d="M67.0169 18.1425C66.8447 19.0972 66.6393 20.0549 66.6486 21.0327C65.6592 21.0173 64.6947 21.2376 63.7287 21.3972C63.3394 20.2146 63.3038 19.002 63.3495 17.7664C64.597 17.7211 65.8228 17.7557 67.0169 18.1417V18.1425Z" fill="#090a0c" />
        <path d="M81.0248 17.7675C81.0705 19.0023 81.0349 20.2157 80.6456 21.3983C79.6788 21.2379 78.715 21.0176 77.7257 21.0338C77.735 20.056 77.5288 19.0983 77.3574 18.1436C78.5522 17.7583 79.7773 17.723 81.0248 17.7683V17.7675Z" fill="#090a0c" />
        <path d="M66.6487 31.9983C66.6386 32.976 66.8464 33.933 67.0162 34.8877C65.8408 35.3037 64.5839 35.2922 63.3496 35.2638C63.3038 34.029 63.3387 32.8156 63.7287 31.6338C64.6956 31.7888 65.6601 32.0451 66.6487 31.9983Z" fill="#090a0c" />
        <path d="M80.6456 31.6338C81.0349 32.8164 81.0705 34.029 81.0248 35.2638C79.7773 35.3091 78.5514 35.2745 77.3574 34.8885C77.5295 33.9338 77.735 32.976 77.7257 31.9983C78.7135 32.0075 79.6811 31.8034 80.6456 31.6338Z" fill="#090a0c" />
        <path d="M85.6291 35.9414C84.7669 37.6045 83.4085 38.9912 81.709 39.8216C82.1408 38.9229 82.5634 38.0242 82.8433 37.0642C83.3139 36.903 83.797 36.7725 84.2591 36.5868C84.7212 36.4011 85.1623 36.1379 85.6291 35.9414Z" fill="#090a0c" />
        <path d="M61.5299 37.0637C61.7044 37.5257 61.8253 38.0068 62.0122 38.465C62.2022 38.9331 62.4665 39.3591 62.6643 39.8211C60.9717 38.9915 59.6203 37.617 58.7441 35.9708C58.779 35.8856 58.862 35.9662 58.9124 35.9892C59.3156 36.1742 59.6792 36.4121 60.1134 36.5863C60.5755 36.772 61.0593 36.9025 61.5292 37.0637H61.5299Z" fill="#090a0c" />
        <path d="M85.6299 17.0899C84.715 16.6732 83.8233 16.2266 82.8433 15.9672C82.5696 15.0033 82.1315 14.1123 81.709 13.209C83.4109 14.0754 84.753 15.4046 85.6291 17.0892L85.6299 17.0899Z" fill="#090a0c" />
        <path d="M61.5288 15.9674C60.5487 16.226 59.6571 16.6734 58.7422 17.0901C59.6028 15.4079 60.9573 14.0956 62.6321 13.21C62.7181 13.2445 62.6367 13.3266 62.6135 13.3765C62.4266 13.7756 62.1847 14.1347 62.0102 14.5653C61.8242 15.0242 61.7024 15.5054 61.528 15.9674H61.5288Z" fill="#090a0c" />
        <path d="M74.9243 10.4386L73.4333 10.9636L72.2129 11.5461C71.305 11.1493 70.4226 10.6927 69.4473 10.4686C71.1933 9.82238 73.1627 9.87533 74.9243 10.4386Z" fill="#090a0c" />
        <path d="M88.4294 29.2259L87.899 27.7501L87.3105 26.5422C87.7114 25.6435 88.1727 24.7701 88.3991 23.8047C89.0419 25.5383 88.9961 27.4769 88.4294 29.2259Z" fill="#090a0c" />
        <path d="M56.0044 29.2259C55.9152 29.2351 55.9036 29.0801 55.8796 29.0118C55.3252 27.3879 55.3965 25.4094 55.9734 23.8047C56.2122 24.7494 56.6161 25.6274 57.0619 26.49C56.6712 27.3856 56.1719 28.2489 56.0036 29.2267L56.0044 29.2259Z" fill="#090a0c" />
        <path d="M74.9243 42.5328C74.7886 42.6893 74.4389 42.7484 74.2288 42.7983C72.8797 43.1222 71.3352 43.1176 69.9939 42.7607C69.8264 42.7162 69.5364 42.674 69.4473 42.5328C70.4126 42.3862 71.2988 41.9203 72.1648 41.499C73.0611 41.8935 73.9388 42.3847 74.9243 42.5328Z" fill="#090a0c" />
        <path d="M68.8292 21.2769C68.785 20.5624 68.8812 19.8556 69.0153 19.1557C69.0277 19.0904 68.982 19.0252 69.1053 19.0628C69.2658 19.1119 70.0527 19.7167 70.2248 19.8648C70.3055 19.9339 70.8001 20.4066 70.8032 20.448L70.1543 21.5823L68.8285 21.2776L68.8292 21.2769Z" fill="#090a0c" />
        <path d="M66.8933 23.1922L67.2011 24.5038L66.056 25.14C65.9676 25.1415 65.5551 24.6741 65.4659 24.5728C65.3023 24.3863 64.7131 23.6496 64.6557 23.4646C64.6177 23.3426 64.6836 23.3879 64.7495 23.3756C65.4566 23.2428 66.1707 23.1477 66.8925 23.1914L66.8933 23.1922Z" fill="#090a0c" />
        <path d="M79.7169 29.6576C78.9734 29.7582 78.236 29.8994 77.4793 29.8395L77.1699 28.4934L78.3492 27.8994C78.5423 28.0138 79.8355 29.5525 79.7169 29.6576Z" fill="#090a0c" />
        <path d="M67.2028 28.4935L66.8934 29.8396C66.1367 29.8987 65.4001 29.7582 64.6558 29.6569C64.5395 29.5541 65.8405 27.9862 66.0553 27.8818L67.2028 28.4927V28.4935Z" fill="#090a0c" />
        <path d="M75.3603 19.0623C75.4363 19.8044 75.62 20.5227 75.544 21.2771L74.219 21.5818L73.584 20.4161C73.6918 20.2204 75.2579 18.9449 75.3603 19.0623Z" fill="#090a0c" />
        <path d="M70.1896 31.4492L70.7843 32.6165C70.7006 32.8329 69.1111 34.0823 69.0134 33.9703C68.9599 33.2481 68.7219 32.5428 68.8537 31.8107L70.1896 31.4492Z" fill="#090a0c" />
        <path d="M75.3607 33.9703C75.263 34.0823 73.6736 32.8329 73.5898 32.6165L74.1845 31.4492L75.5204 31.8107C75.6522 32.5428 75.4142 33.2481 75.3607 33.9703Z" fill="#090a0c" />
        <path d="M77.1699 24.5387L77.4793 23.1926C77.7189 23.1174 79.7061 23.2939 79.7154 23.4666C79.3083 24.0721 78.8803 24.6723 78.3174 25.1465L77.1699 24.5395V24.5387Z" fill="#090a0c" />
        <path d="M72.6476 25.4404H71.7467L71.1094 26.0713V26.9638L71.7467 27.5946H72.6476L73.285 26.9638V26.0713L72.6476 25.4404Z" fill="#090a0c" />

        {/* Text Paths - THRIVEMED */}
        <path d="M105.292 19.3555V20.6601H100.291L100.174 20.7752V33.7834H98.7012V20.6601H93.584V19.3555H105.292Z" fill="#090a0c" />
        <path d="M109.324 25.802H118.473V19.3555H119.83L119.946 19.4706V33.7834H118.473V27.2217L118.357 27.1066H109.324V33.7834H107.89L107.773 33.6683V19.4706L107.89 19.3555H109.208L109.324 19.4706V25.802Z" fill="#090a0c" />
        <path d="M124.676 19.4707C124.762 19.4277 124.831 19.3556 124.931 19.3556C126.177 19.3556 128.687 19.3525 130.067 19.3525C132.304 19.3525 134.837 20.0609 135.723 22.3502C136.768 25.05 135.575 27.9709 132.74 28.8327L136.306 33.7835H134.6L131.421 29.1789H126.226V33.7835H124.792L124.676 33.6684V19.4707ZM126.226 20.6603V27.8358L126.343 27.951H130.917C132.19 27.951 133.79 27.0262 134.292 25.8428C135.386 23.2657 133.563 20.6603 130.762 20.6603H126.226Z" fill="#090a0c" />
        <path d="M141.267 19.3555H139.717V33.7834H141.267V19.3555Z" fill="#090a0c" />
        <path d="M157.86 19.3555L151.542 33.7066L150.063 33.788L143.594 19.3555H145.106L150.766 31.8632L156.503 19.3555H157.86Z" fill="#090a0c" />
        <path d="M170.033 20.6601H161.582V25.802H168.986L169.103 25.9171V27.1066H161.582V32.4787H170.343V33.7834H160.148L160.031 33.6683V19.4706L160.148 19.3555H169.917L170.033 19.4706V20.6601Z" fill="#090a0c" />
        <path d="M175.377 33.7834H173.986V19.3555H175.266L181.546 30.0214L187.904 19.3555H189.028V33.7834H187.632V22.3485L187.26 22.7859L181.935 31.8663L181.133 31.9292L175.575 22.5043C175.518 22.3684 175.383 22.5058 175.383 22.5411" fill="#090a0c" />
        <path d="M202.802 27.1066H195.387V32.4787H204.032L204.136 32.6061V33.7834H193.836V19.4706L193.952 19.3555H203.76V20.6601H195.387V25.802H202.791" fill="currentColor" />
        <path d="M207.792 33.7837V19.3557C209.7 19.4233 211.669 19.2667 213.571 19.3527C215.009 19.4171 216.571 19.6573 217.846 20.3396C222.108 22.6181 222.709 28.8221 219.075 31.9441C215.954 34.6248 211.588 33.5711 207.791 33.7837H207.792ZM209.265 32.479H214.576C214.865 32.479 216.017 32.1267 216.341 32.0001C221.425 30.014 221.115 22.4831 215.817 20.9658C213.76 20.3764 211.389 20.7824 209.264 20.6604V32.479H209.265Z" fill="currentColor" />
    </g>
    <defs>
        <clipPath id="clip0_7207_198">
            <rect width="166" height="33" fill="white" transform="translate(55.5 10)" />
        </clipPath>
    </defs>
</svg>
